<?xml version="1.0" standalone="no"?>
<!DOCTYPE svg PUBLIC "-//W3C//DTD SVG 20010904//EN"
 "http://www.w3.org/TR/2001/REC-SVG-20010904/DTD/svg10.dtd">
<svg version="1.0" xmlns="http://www.w3.org/2000/svg"
 width="619.000000pt" height="575.000000pt" viewBox="0 0 619.000000 575.000000"
 preserveAspectRatio="xMidYMid meet">
<metadata>
Created by potrace 1.16, written by Peter Selinger 2001-2019
</metadata>
<g transform="translate(0.000000,575.000000) scale(0.100000,-0.100000)"
fill="#000000" stroke="none">
<path d="M2870 5193 c-85 -10 -284 -55 -380 -87 -643 -213 -1106 -733 -1250
-1401 -27 -126 -38 -435 -21 -570 73 -552 366 -1019 831 -1325 367 -241 839
-350 1270 -294 63 8 180 19 260 24 137 8 238 29 268 53 8 6 12 22 9 36 -4 24
3 30 93 73 386 188 714 533 885 930 99 230 145 462 145 725 0 377 -110 727
-327 1041 -35 52 -63 95 -61 96 53 36 143 104 177 134 33 28 43 43 38 56 -6
16 -16 13 -90 -28 -45 -26 -105 -58 -132 -72 l-50 -26 -90 90 -90 90 44 48
c74 82 181 218 181 231 0 31 -25 17 -102 -54 -127 -119 -186 -166 -203 -159
-8 3 -40 24 -71 47 l-55 42 35 36 c47 49 176 230 176 247 0 29 -27 11 -85 -57
-65 -77 -175 -179 -194 -179 -6 0 -48 20 -94 44 -173 94 -407 170 -618 201
-99 14 -401 19 -499 8z m-84 -195 c3 -4 -21 -14 -53 -24 -244 -72 -458 -170
-628 -289 -127 -89 -317 -273 -420 -409 -44 -57 -84 -105 -88 -105 -11 -1 0
33 34 105 16 33 29 64 29 69 0 21 112 155 205 243 119 114 266 217 410 289
111 56 234 103 269 103 12 0 26 3 29 7 4 3 28 8 54 10 25 2 48 4 49 6 5 5 104
0 110 -5z m1250 -164 c-176 -171 -293 -246 -559 -355 -133 -54 -147 -63 -130
-80 16 -16 227 30 385 82 200 67 458 198 590 301 79 61 85 65 63 39 -44 -52
-215 -197 -290 -246 -150 -98 -324 -173 -532 -230 -145 -40 -148 -42 -131 -62
11 -13 32 -15 133 -10 284 13 727 128 977 253 48 24 91 44 95 44 5 0 -30 -25
-77 -56 -93 -61 -239 -134 -365 -182 -111 -42 -428 -119 -558 -136 -179 -22
-166 -41 74 -110 198 -57 438 -92 659 -97 l65 -2 -55 -7 c-82 -12 -353 -11
-455 0 -49 6 -143 23 -208 37 -84 19 -121 23 -129 15 -15 -15 21 -46 181 -154
137 -92 329 -192 476 -248 113 -43 36 -27 -122 25 -143 48 -317 127 -427 194
-74 46 -102 45 -76 -4 33 -62 185 -251 290 -360 63 -66 108 -115 100 -109 -62
44 -182 149 -270 238 -57 58 -110 106 -117 106 -15 0 -18 -9 -48 -175 -48
-262 -92 -385 -275 -765 -135 -281 -155 -342 -155 -475 0 -116 21 -175 102
-298 134 -202 308 -329 501 -367 34 -7 65 -16 67 -20 8 -14 -56 -30 -160 -41
-249 -28 -831 59 -1200 177 -219 71 -342 144 -509 304 -139 134 -133 116 -82
251 110 287 249 589 373 809 96 170 126 259 127 375 1 117 -23 173 -105 249
-87 81 -189 108 -327 87 -95 -15 -170 -49 -231 -106 -49 -46 -101 -132 -101
-167 0 -38 -19 -15 -45 55 -36 96 -44 213 -20 290 23 74 98 164 183 221 39 25
74 46 79 46 6 0 23 -19 39 -42 72 -104 183 -158 339 -166 267 -13 435 39 611
189 77 66 119 89 175 96 21 3 40 12 43 19 8 21 -66 107 -130 149 -116 77 -256
109 -379 86 -93 -17 -174 -63 -282 -159 -114 -103 -159 -132 -200 -132 -34 0
-96 38 -101 61 -3 18 124 122 219 181 80 49 191 94 308 126 87 24 113 26 281
27 l185 0 120 -40 c110 -36 129 -40 230 -40 104 0 117 3 235 43 69 24 170 65
225 91 100 48 309 181 375 239 70 62 43 29 -54 -64z"/>
</g>
</svg>
