<?xml version="1.0" encoding="UTF-8" standalone="no"?>
<!-- Created with Inkscape (http://www.inkscape.org/) -->

<svg
   width="163.67827mm"
   height="152.05447mm"
   viewBox="0 0 618.62654 574.69409"
   version="1.1"
   id="svg1"
   xml:space="preserve"
   inkscape:export-filename="family/osbert/nang-nang_logo_only.jpg"
   inkscape:export-xdpi="96"
   inkscape:export-ydpi="96"
   sodipodi:docname="serene_safaris_plain.svg"
   xmlns:inkscape="http://www.inkscape.org/namespaces/inkscape"
   xmlns:sodipodi="http://sodipodi.sourceforge.net/DTD/sodipodi-0.dtd"
   xmlns="http://www.w3.org/2000/svg"
   xmlns:svg="http://www.w3.org/2000/svg"><sodipodi:namedview
     id="namedview1"
     pagecolor="#ffffff"
     bordercolor="#999999"
     borderopacity="1"
     inkscape:showpageshadow="0"
     inkscape:pageopacity="0"
     inkscape:pagecheckerboard="0"
     inkscape:deskcolor="#d1d1d1"
     inkscape:document-units="mm"
     inkscape:export-bgcolor="#0a0a0a00"
     showguides="true"
     inkscape:zoom="0.70096114"
     inkscape:cx="977.22964"
     inkscape:cy="407.2979"
     inkscape:window-width="1366"
     inkscape:window-height="768"
     inkscape:window-x="0"
     inkscape:window-y="0"
     inkscape:window-maximized="1"
     inkscape:current-layer="layer1" /><defs
     id="defs1"><inkscape:path-effect
       effect="bspline"
       id="path-effect9"
       is_visible="true"
       lpeversion="1.3"
       weight="33.333333"
       steps="2"
       helper_size="0"
       apply_no_weight="true"
       apply_with_weight="true"
       only_selected="false"
       uniform="false" /><filter
       inkscape:label="Combined Lighting"
       inkscape:menu="Bevels"
       inkscape:menu-tooltip="Basic specular bevel to use for building textures"
       style="color-interpolation-filters:sRGB"
       id="filter22"
       x="-0.081741795"
       y="-0.083358785"
       width="1.1634836"
       height="1.1667176"><feGaussianBlur
         stdDeviation="6"
         in="SourceGraphic"
         result="result0"
         id="feGaussianBlur20" /><feDiffuseLighting
         lighting-color="#ffffff"
         diffuseConstant="1"
         surfaceScale="4"
         result="result5"
         id="feDiffuseLighting20"><feDistantLight
           elevation="45"
           azimuth="235"
           id="feDistantLight20" /></feDiffuseLighting><feComposite
         k1="1.4"
         in2="SourceGraphic"
         in="result5"
         result="fbSourceGraphic"
         operator="arithmetic"
         id="feComposite20"
         k2="0"
         k3="0"
         k4="0" /><feGaussianBlur
         result="result0"
         in="fbSourceGraphic"
         stdDeviation="6"
         id="feGaussianBlur21" /><feSpecularLighting
         specularExponent="25"
         specularConstant="1"
         surfaceScale="4"
         lighting-color="#ffffff"
         result="result1"
         in="result0"
         id="feSpecularLighting21"><feDistantLight
           azimuth="235"
           elevation="45"
           id="feDistantLight21" /></feSpecularLighting><feComposite
         k3="1"
         k2="1"
         operator="arithmetic"
         in="fbSourceGraphic"
         in2="result1"
         result="result4"
         id="feComposite21"
         k1="0"
         k4="0" /><feComposite
         operator="in"
         result="result2"
         in2="SourceGraphic"
         in="result4"
         id="feComposite22" /></filter></defs><g
     inkscape:label="Layer 1"
     inkscape:groupmode="layer"
     id="layer1"
     transform="translate(-248.2251,-71.059044)"><path
       style="font-size:95.8466px;line-height:1.25;font-family:'Abhaya Libre';-inkscape-font-specification:'Abhaya Libre';opacity:1;mix-blend-mode:normal;fill:#808000;fill-opacity:1;stroke-width:2.64663"
       d="M 746.61249,310.7024 A 189.07246,185.40486 0 0 1 557.53998,496.10721 189.07246,185.40486 0 0 1 368.46751,310.7024 189.07246,185.40486 0 0 1 557.53998,125.29746 189.07246,185.40486 0 0 1 746.61249,310.7024 Z"
       id="path16" /><path
       style="font-size:95.8466px;line-height:1.25;font-family:'Abhaya Libre';-inkscape-font-specification:'Abhaya Libre';mix-blend-mode:normal;fill:#000000;fill-opacity:1;stroke-width:2.46595;filter:url(#filter22)"
       d="M 732.79645,311.43484 A 176.16445,172.74723 0 0 1 556.63197,484.18202 176.16445,172.74723 0 0 1 380.46751,311.43484 176.16445,172.74723 0 0 1 556.63197,138.68754 176.16445,172.74723 0 0 1 732.79645,311.43484 Z"
       id="path15" /><path
       style="fill:#ffffff;stroke:#000000;stroke-width:1px;stroke-linecap:butt;stroke-linejoin:miter;stroke-opacity:1"
       d="m 992.30597,363.1929 c -0.001,-0.25759 -0.005,-0.77278 0.0217,-1.16941 0.0262,-0.39664 0.0816,-0.6747 0.13868,-0.93556 0.0571,-0.26086 0.1158,-0.50453 0.30457,-0.94713 0.18878,-0.44259 0.50758,-1.08409 0.8364,-1.63077 0.32881,-0.54668 0.66762,-0.99852 1.07297,-1.43592 0.40534,-0.43741 0.87721,-0.86036 1.28048,-1.17717 0.40326,-0.31682 0.73791,-0.52748 1.05562,-0.71948 0.31771,-0.192 0.61846,-0.36533 0.94713,-0.52123 0.32867,-0.1559 0.68524,-0.29436 1.07802,-0.44155 0.39279,-0.14718 0.82176,-0.30307 1.26265,-0.41475 0.4408,-0.11169 0.8936,-0.17917 1.2667,-0.23601 0.3732,-0.0568 0.6667,-0.10302 1.0034,-0.13363 0.3367,-0.0306 0.7166,-0.0457 1.1756,-0.0593 0.4591,-0.0136 0.9973,-0.0258 1.4512,-0.007 0.4539,0.0185 0.8234,0.0677 1.2091,0.13884 0.3858,0.0712 0.7877,0.16427 1.1825,0.27822 0.3947,0.11394 0.7822,0.24869 1.163,0.42046 0.3808,0.17177 0.755,0.38061 1.1251,0.61543 0.3701,0.23483 0.7362,0.49568 1.0563,0.75883 0.32,0.26314 0.5941,0.52864 0.8436,0.78729 0.2494,0.25865 0.4743,0.51051 0.6754,0.7702 0.2011,0.25968 0.3785,0.52725 0.5575,0.82772 0.1791,0.30047 0.3598,0.63384 0.499,0.94882 0.1391,0.31499 0.2367,0.61133 0.3483,1.02098 0.1115,0.40966 0.237,0.93248 0.2997,1.41097 0.063,0.47848 0.063,0.91261 0.071,1.28633 0.01,0.37372 0.025,0.68695 7e-4,1.05805 -0.024,0.3711 -0.09,0.8001 -0.1597,1.22119 -0.07,0.4211 -0.1445,0.83454 -0.2249,1.2244 -0.08,0.38987 -0.1666,0.75636 -0.2799,1.08194 -0.1132,0.32558 -0.2535,0.61026 -0.3873,0.97749 -0.1338,0.36723 -0.2613,0.81694 -0.3688,1.15828 -0.1076,0.34134 -0.1953,0.57408 -0.3015,0.7885 -0.1062,0.21441 -0.2309,0.41041 -0.3427,0.60933 -0.1118,0.19892 -0.2105,0.40051 -0.3176,0.60755 -0.1071,0.20704 -0.2226,0.41942 -0.3396,0.6024 -0.117,0.18298 -0.2355,0.33655 -0.3508,0.54935 -0.1153,0.21281 -0.2272,0.48476 -0.3958,0.81088 -0.1685,0.32613 -0.3936,0.70637 -0.7017,1.25404 -0.3081,0.54767 -0.6992,1.26275 -1.0056,1.81882 -0.3064,0.55608 -0.5281,0.9531 -0.8403,1.52159 -0.3123,0.56848 -0.715,1.30834 -1.0443,1.97612 -0.3292,0.66777 -0.585,1.26342 -0.7779,1.7115 -0.1929,0.44808 -0.323,0.74859 -0.4856,1.11977 -0.1625,0.37118 -0.3576,0.81302 -0.522,1.16668 -0.1643,0.35365 -0.2981,0.61908 -0.5509,1.11817 -0.2528,0.49908 -0.6246,1.23178 -0.9251,1.86067 -0.3005,0.62889 -0.5295,1.154 -0.7187,1.60107 -0.1892,0.44707 -0.3386,0.81614 -0.5899,1.42879 -0.2513,0.61265 -0.6046,1.46885 -1.0273,2.47017 -0.4228,1.00133 -0.9149,2.1477 -1.3606,3.26295 -0.4457,1.11524 -0.84489,2.19932 -1.20397,3.18845 -0.35908,0.98913 -0.67802,1.88325 -0.85228,2.35168 -0.17426,0.46843 -0.20383,0.51115 0.93237,1.75975 1.13618,1.2486 3.43808,3.703 5.87258,5.71874 2.4345,2.01575 5.0016,3.5928 8.4001,4.97242 3.3985,1.37962 7.6282,2.56175 11.2512,3.42417 3.623,0.86242 6.639,1.40508 10.3307,1.96082 3.6918,0.55574 8.059,1.12452 11.7577,1.32272 3.6987,0.19819 6.7287,0.0258 8.837,-0.40768 2.1083,-0.43347 3.2948,-1.12796 3.0295,-1.59691 -0.2654,-0.46895 -1.9826,-0.71229 -3.5791,-1.04691 -1.5965,-0.33462 -3.0722,-0.76048 -4.6229,-1.61002 -1.5508,-0.84954 -3.1764,-2.12266 -4.3417,-3.14844 -1.1654,-1.02578 -1.8704,-1.80414 -2.5798,-2.67307 -0.7094,-0.86893 -1.4232,-1.8284 -2.045,-2.72489 -0.6219,-0.89649 -1.1517,-1.72992 -1.5594,-2.51095 -0.4076,-0.78103 -0.693,-1.50957 -0.9613,-2.25475 -0.2682,-0.74519 -0.5193,-1.50698 -0.6529,-2.21806 -0.1335,-0.71109 -0.1495,-1.37143 -0.1222,-2.15824 0.027,-0.78681 0.098,-1.69996 0.2545,-2.53638 0.1566,-0.83641 0.3991,-1.596 0.6371,-2.41169 0.2381,-0.8157 0.4716,-1.68742 1.4008,-3.69638 0.9291,-2.00897 2.5537,-5.15498 3.8631,-7.88296 1.3095,-2.72797 2.3037,-5.03776 3.1736,-7.15668 0.8699,-2.11891 1.6153,-4.04684 2.2877,-6.63467 0.6724,-2.58783 1.2717,-5.8354 1.6086,-7.8245 0.3368,-1.98909 0.4112,-2.71966 0.5747,-2.94997 0.1636,-0.2303 0.4163,0.0396 0.6607,0.30458 0.2443,0.26498 0.4804,0.52508 0.7374,0.81247 0.257,0.28739 0.5349,0.60205 0.7978,0.89373 0.2628,0.29168 0.5106,0.56034 0.8654,0.93591 0.3548,0.37556 0.8166,0.858 1.2375,1.27926 0.4208,0.42125 0.8007,0.7813 1.1507,1.10716 0.35,0.32585 0.6701,0.61749 1.0164,0.93014 0.3463,0.31264 0.7187,0.64622 1.1239,0.98181 0.4052,0.33559 0.8432,0.67318 1.3572,1.07784 0.5141,0.40466 1.1043,0.87642 1.7311,1.35078 0.6269,0.47436 1.2904,0.95131 1.8985,1.37873 0.608,0.42741 1.1606,0.80528 1.7679,1.21155 0.6072,0.40627 1.2691,0.84092 1.8359,1.21011 0.5669,0.36919 1.0387,0.67292 1.773,1.1192 0.7344,0.44629 1.7312,1.03509 2.2259,1.31346 0.4947,0.27838 0.4875,0.24749 0.4453,0.18582 -0.042,-0.0617 -0.1194,-0.1537 -0.187,-0.21886 -0.068,-0.0652 -0.1262,-0.10388 -0.3197,-0.24061 -0.1935,-0.13672 -0.5222,-0.37166 -0.8495,-0.60644 -0.3272,-0.23478 -0.6529,-0.46937 -0.9911,-0.7168 -0.3381,-0.24743 -0.6887,-0.50771 -1.0782,-0.8004 -0.3895,-0.29269 -0.8179,-0.61779 -1.2207,-0.9374 -0.4027,-0.31962 -0.7797,-0.63369 -1.1817,-0.96803 -0.402,-0.33433 -0.829,-0.68892 -1.2536,-1.05145 -0.4247,-0.36253 -0.8469,-0.73294 -1.2356,-1.08791 -0.3888,-0.35496 -0.7441,-0.69448 -1.6294,-1.57413 -0.8854,-0.87964 -2.3008,-2.29939 -3.2883,-3.34065 -0.9876,-1.04125 -1.5474,-1.70403 -2.0506,-2.32033 -0.5032,-0.61629 -0.9498,-1.18607 -1.3292,-1.66625 -0.3794,-0.48019 -0.6915,-0.87071 -1.0357,-1.33037 -0.3441,-0.45966 -0.7202,-0.98837 -1.1273,-1.57208 -0.407,-0.58372 -0.845,-1.2224 -1.1447,-1.66825 -0.2996,-0.44585 -0.461,-0.69892 -0.5503,-0.85973 -0.089,-0.16082 -0.1067,-0.22976 -0.047,-0.21819 0.059,0.0116 0.1955,0.10337 0.5308,0.32382 0.3352,0.22045 0.8695,0.56949 1.4421,0.92128 0.5726,0.35178 1.1836,0.70635 1.7113,1.01153 0.5277,0.30518 0.9721,0.56097 1.4125,0.79722 0.4404,0.23625 0.8768,0.45295 1.4688,0.72507 0.5919,0.27212 1.3395,0.59971 2.2668,0.99953 0.9274,0.39983 2.0346,0.87194 2.8577,1.194 0.8231,0.32207 1.3621,0.49409 1.9164,0.67978 0.5543,0.18569 1.1238,0.38502 1.6782,0.56735 0.5544,0.18234 1.0936,0.34765 1.6937,0.52463 0.6002,0.17698 1.2614,0.36565 1.8762,0.51401 0.6148,0.14836 1.1833,0.25642 1.7729,0.38386 0.5895,0.12743 1.2,0.2742 1.6452,0.36707 0.4453,0.0929 0.7253,0.13181 1.2888,0.23145 0.5634,0.0996 1.4104,0.25998 2.2956,0.39685 0.8852,0.13686 1.8086,0.25024 2.5848,0.33419 0.7762,0.084 1.4051,0.13846 1.2106,0.0419 -0.1944,-0.0966 -1.2123,-0.34418 -2.1627,-0.57259 -0.9504,-0.2284 -1.8332,-0.43756 -2.8811,-0.7332 -1.0478,-0.29565 -2.2607,-0.67777 -3.0945,-0.95308 -0.8338,-0.27531 -1.2884,-0.44376 -1.7461,-0.60739 -0.4577,-0.16363 -0.9184,-0.3224 -1.4329,-0.51159 -0.5144,-0.18919 -1.0826,-0.4088 -1.6641,-0.64766 -0.5816,-0.23886 -1.1764,-0.49694 -1.9875,-0.87115 -0.811,-0.37422 -1.8382,-0.86452 -2.599,-1.22953 -0.7609,-0.365 -1.2555,-0.60473 -1.6344,-0.78698 -0.3789,-0.18224 -0.6421,-0.30699 -1.0066,-0.51036 -0.3646,-0.20337 -0.8304,-0.48532 -1.5435,-0.92522 -0.7132,-0.4399 -1.6736,-1.03769 -2.4993,-1.57105 -0.8257,-0.53337 -1.5166,-1.00226 -2.0646,-1.39348 -0.5479,-0.39123 -0.9529,-0.70479 -1.5752,-1.15301 -0.6223,-0.44822 -1.4618,-1.03103 -1.9492,-1.40076 -0.4875,-0.36973 -0.6229,-0.52635 -0.5394,-0.58239 0.083,-0.056 0.3857,-0.0115 0.9959,0.1324 0.6102,0.1439 1.5281,0.38712 2.3758,0.58878 0.8476,0.20167 1.6248,0.36173 2.4055,0.5051 0.7806,0.14338 1.5647,0.27005 2.3664,0.37858 0.8017,0.10854 1.621,0.19893 2.524,0.27062 0.903,0.0717 1.8898,0.12469 2.9728,0.14851 1.0831,0.0238 2.2624,0.0185 3.5792,0.008 1.3169,-0.0105 2.7712,-0.0262 3.6769,-0.0598 0.9057,-0.0336 1.2629,-0.0851 1.6868,-0.14007 0.4238,-0.055 0.9144,-0.11358 1.4311,-0.16518 0.5166,-0.0516 1.0591,-0.0962 1.503,-0.15519 0.4438,-0.059 0.7889,-0.13237 1.2922,-0.20869 0.5033,-0.0763 1.1648,-0.1556 1.7441,-0.24831 0.5793,-0.0927 1.0764,-0.19886 1.5959,-0.31151 0.5195,-0.11264 1.0614,-0.23177 1.5569,-0.34102 0.4955,-0.10924 0.9447,-0.2086 1.3425,-0.29979 0.3978,-0.0912 0.7443,-0.17421 1.1536,-0.28626 0.4093,-0.11205 0.8814,-0.25311 0.794,-0.28826 -0.087,-0.0352 -0.7342,0.0356 -1.4478,0.11989 -0.7136,0.0843 -1.494,0.18211 -2.2743,0.27562 -0.7803,0.0935 -1.5604,0.18268 -2.4286,0.26591 -0.8681,0.0832 -1.8242,0.16048 -2.8171,0.20792 -0.9929,0.0474 -2.0224,0.065 -3.3463,0.0431 -1.3238,-0.0219 -2.942,-0.0833 -4.696,-0.21786 -1.754,-0.13459 -3.6437,-0.3424 -5.1473,-0.53436 -1.5035,-0.19197 -2.6208,-0.36808 -3.6777,-0.56653 -1.057,-0.19845 -2.0536,-0.41922 -3.5784,-0.82632 -1.5247,-0.40709 -3.5776,-1.0005 -4.9671,-1.43629 -1.3895,-0.43578 -2.1155,-0.71391 -2.4769,-0.88184 -0.3614,-0.16794 -0.3581,-0.2256 0.08,-0.29271 0.4379,-0.0671 1.3101,-0.14305 2.1597,-0.23228 0.8496,-0.0892 1.6764,-0.19169 2.684,-0.35485 1.0075,-0.16316 2.1958,-0.38702 4.0298,-0.80762 1.834,-0.42061 4.3137,-1.03796 6.1435,-1.53399 1.8297,-0.49602 3.0095,-0.87071 4.3381,-1.37721 1.3285,-0.5065 2.8057,-1.14478 3.9972,-1.67287 1.1915,-0.52809 2.0971,-0.94593 2.9445,-1.37453 0.8475,-0.4286 1.6365,-0.86784 2.7559,-1.56716 1.1194,-0.69932 2.5689,-1.65857 3.6318,-2.41094 1.0628,-0.75237 1.7389,-1.29779 2.3081,-1.76644 0.5693,-0.46865 1.0316,-0.86046 1.4847,-1.25666 0.4531,-0.39619 0.8969,-0.7967 0.7244,-0.784 -0.1726,0.0127 -0.9615,0.43859 -1.9242,0.99112 -0.9627,0.55253 -2.0991,1.23164 -3.4722,1.9661 -1.373,0.73446 -2.9826,1.52422 -4.9918,2.37241 -2.0093,0.8482 -4.418,1.75474 -7.2669,2.61587 -2.8488,0.86113 -6.1376,1.67678 -8.9514,2.2553 -2.8139,0.57852 -5.1527,0.91988 -6.6009,1.11392 -1.4483,0.19405 -2.0058,0.24076 -3.0413,0.25915 -1.0355,0.0184 -2.5489,0.008 -3.3039,-0.0245 -0.755,-0.033 -0.7517,-0.089 -0.6307,-0.14779 0.1209,-0.0588 0.3594,-0.11969 0.8056,-0.22539 0.4461,-0.1057 1.0999,-0.25618 1.8926,-0.45704 0.7926,-0.20087 1.7241,-0.45212 2.6585,-0.72894 0.9345,-0.27682 1.872,-0.57923 2.798,-0.90811 0.926,-0.32887 1.8404,-0.68417 2.6538,-1.00444 0.8133,-0.32028 1.5255,-0.60549 2.1341,-0.86756 0.6085,-0.26206 1.1135,-0.501 1.5835,-0.71996 0.47,-0.21895 0.905,-0.41791 1.5985,-0.79526 0.6936,-0.37734 1.6457,-0.93307 2.4998,-1.46049 0.8542,-0.52742 1.6104,-1.02652 2.2605,-1.4855 0.6502,-0.45899 1.1942,-0.8778 1.8297,-1.40359 0.6356,-0.5258 1.3625,-1.15845 1.8801,-1.61567 0.5176,-0.45722 0.8259,-0.73899 1.3573,-1.23902 0.5314,-0.50004 1.2858,-1.21826 1.8908,-1.84329 0.605,-0.62504 1.0606,-1.15687 1.4611,-1.61707 0.4006,-0.46021 0.746,-0.84873 1.2023,-1.4008 0.4562,-0.55208 1.0234,-1.26773 1.534,-1.90575 0.5106,-0.63802 0.9646,-1.19839 1.1803,-1.5053 0.2157,-0.30692 0.1931,-0.35991 0.073,-0.28943 -0.1202,0.0705 -0.3379,0.26481 -0.7052,0.62211 -0.3672,0.3573 -0.8841,0.87761 -1.6381,1.58738 -0.7541,0.70977 -1.7454,1.60903 -2.5999,2.34889 -0.8546,0.73985 -1.5723,1.32022 -2.1695,1.79211 -0.5971,0.47188 -1.0736,0.83522 -1.5879,1.20173 -0.5142,0.36651 -1.066,0.73609 -1.7052,1.12069 -0.6392,0.38461 -1.3656,0.78414 -2.1207,1.22502 -0.7551,0.44088 -1.5388,0.92306 -2.747,1.5541 -1.2081,0.63103 -2.8406,1.41088 -4.0839,1.96567 -1.2433,0.5548 -2.0973,0.88452 -2.9889,1.21414 -0.8916,0.32963 -1.8207,0.65912 -2.8584,0.99853 -1.0376,0.33941 -2.1838,0.68872 -3.28,0.9848 -1.0962,0.29609 -2.1424,0.53894 -3.3439,0.79639 -1.2016,0.25745 -2.5584,0.52948 -3.2925,0.64245 -0.7341,0.11298 -0.8455,0.0669 -0.7128,-0.0224 0.1327,-0.0893 0.5094,-0.22167 1.661,-0.68216 1.1516,-0.4605 3.0778,-1.24899 4.68,-1.92512 1.6021,-0.67613 2.8801,-1.23985 4.3902,-2.03865 1.5102,-0.79881 3.2525,-1.83269 5.5392,-3.66944 2.2866,-1.83675 5.1174,-4.47622 6.8759,-6.2698 1.7585,-1.79357 2.4445,-2.74119 3.0175,-3.53549 0.5731,-0.79429 1.033,-1.43528 1.4398,-2.00624 0.4067,-0.57097 0.7602,-1.07189 1.1269,-1.57438 0.3667,-0.50249 0.7466,-1.00654 0.5822,-0.85305 -0.1643,0.1535 -0.8728,0.96447 -1.501,1.6998 -0.6282,0.73532 -1.1762,1.39501 -1.7866,2.03829 -0.6105,0.64328 -1.2834,1.27013 -1.9905,1.89211 -0.7072,0.62197 -1.4484,1.23896 -2.1165,1.78007 -0.668,0.5411 -1.2628,1.00625 -1.837,1.43935 -0.5741,0.43311 -1.1276,0.83414 -1.9701,1.4024 -0.8425,0.56825 -1.974,1.30371 -2.7313,1.79393 -0.7572,0.49022 -1.1402,0.73519 -1.6657,1.03078 -0.5255,0.29559 -1.1936,0.64184 -1.7803,0.94525 -0.5867,0.30341 -1.092,0.56399 -1.6424,0.84455 -0.5504,0.28057 -1.1457,0.58103 -2.2464,1.02863 -1.1006,0.4476 -2.7065,1.04228 -3.9527,1.46455 -1.2463,0.42227 -2.1328,0.67209 -2.8141,0.85386 -0.6814,0.18177 -1.1576,0.2955 -1.5494,0.38477 -0.3918,0.0893 -0.6991,0.15409 -1.1752,0.20091 -0.476,0.0468 -1.1206,0.0756 -1.8352,0.051 -0.7145,-0.0246 -1.4989,-0.10274 -2.0592,-0.18198 -0.5603,-0.0792 -0.8964,-0.1596 -1.202,-0.23823 -0.3056,-0.0786 -0.5806,-0.15551 -0.8689,-0.23716 -0.2884,-0.0816 -0.59,-0.16803 -0.8399,-0.25321 -0.25,-0.0852 -0.4481,-0.16909 -0.6654,-0.25116 -0.2174,-0.0821 -0.4539,-0.16229 -0.8431,-0.27957 -0.3892,-0.11728 -0.9309,-0.27156 -1.3125,-0.38151 -0.3816,-0.10994 -0.603,-0.17551 -0.8628,-0.24614 -0.2599,-0.0706 -0.5583,-0.14638 -0.8481,-0.21296 -0.2898,-0.0666 -0.571,-0.12402 -0.9238,-0.16621 -0.3529,-0.0422 -0.7773,-0.0691 -1.4353,-0.13052 -0.6579,-0.0614 -1.5492,-0.15726 -2.2868,-0.20759 -0.7375,-0.0503 -1.3212,-0.0551 -1.9073,-0.0577 -0.5861,-0.003 -1.1746,-0.003 -1.6583,0.0216 -0.4837,0.0245 -0.8627,0.074 -1.2739,0.1264 -0.4112,0.0524 -0.8546,0.10788 -1.7112,0.26854 -0.8567,0.16065 -2.1264,0.42648 -3.3483,0.73 -1.222,0.30351 -2.3961,0.64469 -3.5301,1.06546 -1.134,0.42076 -2.2277,0.92106 -2.9964,1.27295 -0.7686,0.3519 -1.2121,0.55536 -1.6511,0.79032 -0.4391,0.23496 -0.8736,0.50137 -1.701,1.05653 -0.8274,0.55516 -2.0475,1.39897 -3.0741,2.19982 -1.0266,0.80084 -1.8596,1.55866 -2.3531,2.00968 -0.4935,0.45101 -0.6475,0.59522 -0.7011,0.76318 -0.053,0.16796 -0.01,0.35966 0.086,0.56388 0.093,0.20422 0.2316,0.4211 0.4329,0.65912 0.2014,0.23802 0.4653,0.49719 0.7501,0.71013 0.2847,0.21295 0.5902,0.37963 0.9824,0.52689 0.3922,0.14726 0.8712,0.27513 1.1671,0.33318 0.2959,0.058 0.4087,0.0463 0.564,0.017 0.1552,-0.0293 0.3529,-0.076 0.8634,-0.32908 0.5105,-0.25308 1.3338,-0.71247 1.8934,-1.08408 0.5595,-0.37162 0.8553,-0.65545 1.2545,-1.02173 0.3992,-0.36629 0.9018,-0.81502 1.3534,-1.23794 0.4517,-0.42291 0.8522,-0.81992 1.2368,-1.1802 0.3845,-0.36029 0.7529,-0.68377 1.1317,-0.97596 0.3787,-0.2922 0.7677,-0.55307 1.1575,-0.80774 0.3897,-0.25467 0.7802,-0.50314 1.115,-0.70195 0.3348,-0.1988 0.614,-0.34799 0.9031,-0.4894 0.2891,-0.14141 0.5883,-0.27513 0.9269,-0.39988 0.3386,-0.12475 0.7166,-0.24053 1.0707,-0.33991 0.3541,-0.0994 0.6843,-0.18234 1.0705,-0.23717 0.3862,-0.0548 0.8283,-0.0815 1.3418,-0.11103 0.5135,-0.0295 1.0983,-0.0618 1.6902,-0.0519 0.5919,0.01 1.1908,0.0618 1.7809,0.16803 0.5902,0.10619 1.1715,0.26654 1.6739,0.41227 0.5024,0.14573 0.9259,0.27683 1.4011,0.46331 0.4752,0.18647 1.002,0.42826 1.5686,0.74303 0.5666,0.31477 1.1728,0.70241 1.646,1.0219 0.4731,0.3195 0.8132,0.57084 1.1432,0.85657 0.3301,0.28573 0.6501,0.60583 0.9122,0.89829 0.262,0.29246 0.466,0.5572 0.6906,0.83637 0.2247,0.27917 0.4699,0.57271 0.607,0.77623 0.1371,0.20353 0.1661,0.31705 0.113,0.39397 -0.053,0.0769 -0.1884,0.11727 -0.3974,0.13745 -0.2089,0.0202 -0.4915,0.0202 -0.7832,0.0449 -0.2916,0.0248 -0.5923,0.0742 -0.9168,0.17722 -0.3245,0.103 -0.6727,0.2595 -0.9792,0.39775 -0.3065,0.13826 -0.5712,0.25823 -0.8349,0.41916 -0.2637,0.16093 -0.5264,0.36281 -0.7846,0.56675 -0.2581,0.20394 -0.5118,0.40998 -0.7912,0.63366 -0.2795,0.22368 -0.5847,0.46501 -0.8858,0.72966 -0.3011,0.26465 -0.5981,0.55262 -0.9076,0.82803 -0.3095,0.27541 -0.6316,0.53829 -1.054,0.84423 -0.4224,0.30593 -0.9452,0.65496 -1.5417,1.01657 -0.5966,0.36162 -1.267,0.73587 -1.8544,1.0213 -0.5875,0.28544 -1.092,0.48207 -1.6251,0.6629 -0.5332,0.18082 -1.095,0.34582 -1.6596,0.48544 -0.5646,0.13963 -1.132,0.25386 -1.7196,0.33516 -0.5875,0.0813 -1.1952,0.12965 -1.8536,0.18076 -0.6584,0.0511 -1.3673,0.10492 -2.0207,0.14844 -0.6534,0.0435 -1.2512,0.0767 -1.9969,0.0774 -0.7456,6.6e-4 -1.639,-0.0312 -2.3834,-0.082 -0.7444,-0.0508 -1.3399,-0.12041 -1.8901,-0.22746 -0.5502,-0.10705 -1.0551,-0.25148 -1.6451,-0.4863 -0.59,-0.23481 -1.265,-0.55998 -1.763,-0.83221 -0.4981,-0.27223 -0.8192,-0.49153 -1.1859,-0.78693 -0.3667,-0.2954 -0.7791,-0.66694 -1.1423,-1.03484 -0.3633,-0.3679 -0.67743,-0.73217 -0.94494,-1.06699 -0.26751,-0.33483 -0.48837,-0.6402 -0.65494,-0.91052 -0.16657,-0.27032 -0.27885,-0.50558 -0.38599,-0.69383 -0.10713,-0.18826 -0.20911,-0.3295 -0.2978,-0.38521 -0.0887,-0.0557 -0.16407,-0.0259 -0.36638,0.077 -0.20231,0.10288 -0.5315,0.27879 -0.80587,0.43488 -0.27436,0.1561 -0.49389,0.29237 -0.93455,0.56713 -0.44065,0.27477 -1.10239,0.688 -1.67381,1.10094 -0.57141,0.41293 -1.05247,0.82554 -1.50193,1.2701 -0.44945,0.44457 -0.86727,0.92107 -1.20253,1.30123 -0.33526,0.38016 -0.58794,0.66396 -0.86582,1.04974 -0.27788,0.38578 -0.58095,0.87352 -0.81631,1.3559 -0.23535,0.48237 -0.40299,0.95935 -0.52652,1.37809 -0.12353,0.41874 -0.20295,0.77922 -0.27314,1.17059 -0.0702,0.39137 -0.13114,0.81359 -0.17311,1.35115 -0.042,0.53756 -0.0649,1.19042 -0.0327,1.7579 0.0322,0.56749 0.11955,1.04955 0.21984,1.53788 0.10028,0.48834 0.21349,0.98293 0.38241,1.54416 0.16891,0.56124 0.39352,1.1891 0.58651,1.71188 0.193,0.52277 0.35435,0.94043 0.55577,1.35145 0.20142,0.41102 0.44287,0.81536 0.69506,1.18983 0.25218,0.37446 0.51506,0.71901 0.64651,0.89129 0.13144,0.17228 0.12283,0.17187 0.12133,-0.0857 z"
       id="path9"
       transform="matrix(3.3753923,0,0,3.3753923,-2940.3382,-928.77812)"
       inkscape:original-d="m 992.30747,363.4505 c -0.003,-0.51519 -0.006,-1.03038 -0.009,-1.54558 0.0554,-0.27807 0.11082,-0.55613 0.16623,-0.8342 0.0587,-0.24366 0.11746,-0.48732 0.17619,-0.73098 0.31882,-0.64153 0.63762,-1.28303 0.95643,-1.92454 0.33882,-0.45185 0.67763,-0.90369 1.01644,-1.35553 0.47188,-0.42297 0.94375,-0.84592 1.41562,-1.26888 0.33466,-0.21067 0.66931,-0.42133 1.00397,-0.63199 0.30076,-0.17334 0.60151,-0.34666 0.90226,-0.52 0.35659,-0.13847 0.71316,-0.27693 1.06974,-0.4154 0.42899,-0.1559 0.85796,-0.31179 1.28695,-0.46769 0.4527,-0.0675 0.9055,-0.13495 1.3582,-0.20242 0.2936,-0.0462 0.5871,-0.0924 0.8806,-0.13858 0.3799,-0.015 0.7598,-0.03 1.1397,-0.0451 0.5382,-0.0122 1.0764,-0.0244 1.6146,-0.0366 0.3696,0.0492 0.7391,0.0984 1.1086,0.14756 0.402,0.0931 0.8039,0.18626 1.2059,0.27939 0.3875,0.13476 0.775,0.2695 1.1625,0.40425 0.3741,0.20881 0.7483,0.41762 1.1224,0.62642 0.3661,0.26086 0.7322,0.52171 1.0983,0.78256 0.274,0.26548 0.5481,0.53095 0.8222,0.79643 0.2248,0.25185 0.4497,0.50368 0.6746,0.75553 0.1773,0.26753 0.3547,0.53506 0.532,0.80259 0.1808,0.3334 0.3615,0.66678 0.5422,1.00018 0.098,0.29647 0.1952,0.59293 0.2928,0.8894 0.1255,0.52284 0.251,1.04566 0.3765,1.56849 0,0.43414 0,0.86827 0,1.30241 0.017,0.31328 0.033,0.62655 0.05,0.93983 -0.065,0.42895 -0.1308,0.85789 -0.1961,1.28683 -0.074,0.41335 -0.1491,0.82669 -0.2236,1.24004 -0.086,0.36645 -0.1725,0.73289 -0.2588,1.09934 -0.1402,0.28471 -0.2804,0.56941 -0.4207,0.85412 -0.1274,0.44973 -0.2548,0.89945 -0.3823,1.34917 -0.088,0.23284 -0.1754,0.46568 -0.2631,0.69852 -0.1247,0.19601 -0.2494,0.39202 -0.3742,0.58803 -0.099,0.20169 -0.1975,0.40338 -0.2962,0.60507 -0.1155,0.2124 -0.231,0.42478 -0.3465,0.63717 -0.1185,0.15359 -0.237,0.30717 -0.3556,0.46075 -0.112,0.27199 -0.2239,0.54396 -0.3359,0.81595 -0.2251,0.38026 -0.4502,0.76052 -0.6754,1.14078 -0.391,0.71507 -0.7821,1.43012 -1.1731,2.14518 -0.2218,0.39707 -0.4435,0.79411 -0.6652,1.19117 -0.4028,0.73991 -0.8055,1.4798 -1.2083,2.21969 -0.2557,0.59566 -0.5115,1.19128 -0.7672,1.78692 -0.1301,0.30053 -0.2602,0.60104 -0.3903,0.90156 -0.195,0.44185 -0.3901,0.88367 -0.5851,1.32551 -0.1338,0.26545 -0.2675,0.5309 -0.4012,0.79636 -0.3719,0.73271 -0.7438,1.46539 -1.1156,2.19808 -0.2291,0.52511 -0.4582,1.0502 -0.6872,1.57531 -0.1493,0.36907 -0.2987,0.73812 -0.448,1.10718 -0.3533,0.85625 -0.7066,1.71245 -1.0599,2.56868 -0.4922,1.14641 -0.9844,2.29277 -1.4765,3.43916 -0.39921,1.08412 -0.79839,2.1682 -1.19759,3.2523 -0.31895,0.89416 -0.6379,1.78828 -0.95685,2.68242 -0.0296,0.0427 -0.0592,0.0854 -0.0887,0.12816 2.30194,2.45449 4.60384,4.90887 6.90574,7.3633 2.5671,1.5771 5.1342,3.15412 7.7013,4.73118 4.2299,1.18218 8.4596,2.36431 12.6894,3.54646 3.0162,0.54268 6.0322,1.08535 9.0483,1.62802 4.3674,0.5688 8.7346,1.13759 13.1019,1.70639 3.0301,-0.17241 6.0601,-0.34481 9.0901,-0.51721 1.1866,-0.69454 2.3731,-1.38905 3.5597,-2.08357 -1.7173,-0.24336 -3.4345,-0.4867 -5.1517,-0.73005 -1.4758,-0.42589 -2.9515,-0.85176 -4.4273,-1.27764 -1.6257,-1.27317 -3.2513,-2.54629 -4.8769,-3.81944 -0.7051,-0.7784 -1.4101,-1.55677 -2.1151,-2.33515 -0.7138,-0.95951 -1.4276,-1.91897 -2.1414,-2.87846 -0.5299,-0.83348 -1.0597,-1.66693 -1.5896,-2.5004 -0.2854,-0.72858 -0.5708,-1.45712 -0.8562,-2.18568 -0.2511,-0.76181 -0.5022,-1.5236 -0.7533,-2.2854 -0.016,-0.66037 -0.032,-1.32071 -0.048,-1.98107 0.071,-0.91323 0.1412,-1.82642 0.2119,-2.73963 0.2425,-0.75961 0.485,-1.5192 0.7275,-2.2788 0.2336,-0.87178 0.4671,-1.74352 0.7007,-2.61528 1.6247,-3.14614 3.2493,-6.29216 4.8739,-9.43825 0.9943,-2.30987 1.9886,-4.61964 2.9828,-6.92946 0.7455,-1.92801 1.4909,-3.85595 2.2363,-5.78392 0.5994,-3.2477 1.1987,-6.49528 1.7981,-9.74291 0.074,-0.73058 0.1487,-1.46112 0.223,-2.19169 0.2528,0.26993 0.5055,0.53985 0.7582,0.80977 0.236,0.26007 0.4721,0.52013 0.7081,0.7802 0.278,0.31471 0.5559,0.62941 0.8339,0.94412 0.2477,0.26865 0.4955,0.53728 0.7432,0.80591 0.4619,0.4825 0.9237,0.96497 1.3856,1.44745 0.3798,0.36003 0.7597,0.72005 1.1395,1.08007 0.3202,0.29169 0.6403,0.58336 0.9605,0.87504 0.3724,0.33361 0.7448,0.6672 1.1173,1.0008 0.4379,0.33757 0.8759,0.67513 1.3138,1.01269 0.5902,0.47176 1.1804,0.9435 1.7705,1.41524 0.6636,0.47699 1.3271,0.95395 1.9906,1.43092 0.5526,0.37789 1.1052,0.75577 1.6579,1.13366 0.6618,0.43464 1.3237,0.86926 1.9855,1.30388 0.4719,0.30375 0.9437,0.60748 1.4155,0.91122 0.9969,0.58885 1.9937,1.17766 2.9906,1.76649 -0.01,-0.0315 -0.015,-0.0629 -0.022,-0.0944 -0.077,-0.092 -0.1543,-0.18394 -0.2314,-0.2759 -0.058,-0.0385 -0.1167,-0.0771 -0.175,-0.1156 -0.3287,-0.23496 -0.6574,-0.46991 -0.9862,-0.70486 -0.3257,-0.2346 -0.6514,-0.4692 -0.9772,-0.7038 -0.3505,-0.26025 -0.7011,-0.52049 -1.0516,-0.78074 -0.4285,-0.32514 -0.8569,-0.65026 -1.2854,-0.9754 -0.377,-0.31408 -0.754,-0.62815 -1.131,-0.94223 -0.427,-0.3546 -0.854,-0.70918 -1.281,-1.06377 -0.4223,-0.37044 -0.8445,-0.74086 -1.2667,-1.11129 -0.3553,-0.33953 -0.7106,-0.67904 -1.0659,-1.01856 -1.4154,-1.41977 -2.8308,-2.83949 -4.2461,-4.25923 -0.5598,-0.66279 -1.1196,-1.32555 -1.6793,-1.98833 -0.4467,-0.56981 -0.8933,-1.1396 -1.3399,-1.70941 -0.3122,-0.39056 -0.6243,-0.78112 -0.9365,-1.17168 -0.3761,-0.52874 -0.7522,-1.05745 -1.1283,-1.58618 -0.438,-0.6387 -0.876,-1.27738 -1.314,-1.91607 -0.1613,-0.25303 -0.3227,-0.50606 -0.484,-0.75909 -0.017,-0.0687 -0.035,-0.13748 -0.052,-0.20622 0.1361,0.0918 0.2722,0.18363 0.4084,0.27545 0.5343,0.34905 1.0686,0.69809 1.6029,1.04714 0.6109,0.35454 1.2219,0.70907 1.8328,1.06361 0.4445,0.25582 0.8889,0.51162 1.3333,0.76743 0.4364,0.21671 0.8728,0.4334 1.3092,0.6501 0.7475,0.32756 1.4951,0.65511 2.2426,0.98267 1.1072,0.47211 2.2144,0.9442 3.3215,1.41629 0.5391,0.17204 1.0781,0.34408 1.6171,0.51611 0.5696,0.19935 1.1391,0.39868 1.7087,0.59803 0.5392,0.16531 1.0784,0.33061 1.6175,0.49592 0.6612,0.18866 1.3224,0.37732 1.9835,0.56599 0.5685,0.10807 1.137,0.21615 1.7056,0.32422 0.6105,0.14679 1.221,0.29357 1.8316,0.44035 0.2799,0.0389 0.5599,0.0779 0.8399,0.11683 0.8469,0.16034 1.6939,0.32067 2.5408,0.481 0.9235,0.11339 1.8469,0.22678 2.7703,0.34017 0.629,0.0545 1.2579,0.10902 1.8869,0.16353 -1.0179,-0.24763 -2.0358,-0.49526 -3.0537,-0.74288 -0.8829,-0.20917 -1.7657,-0.41834 -2.6485,-0.6275 -1.2129,-0.38213 -2.4258,-0.76425 -3.6387,-1.14638 -0.4547,-0.16847 -0.9093,-0.33693 -1.3639,-0.50539 -0.4608,-0.15879 -0.9215,-0.31758 -1.3822,-0.47636 -0.5682,-0.21961 -1.1364,-0.43921 -1.7046,-0.65881 -0.5949,-0.25811 -1.1897,-0.51621 -1.7846,-0.77432 -1.0272,-0.4903 -2.0544,-0.98059 -3.0815,-1.47088 -0.4946,-0.23973 -0.9892,-0.47945 -1.4837,-0.71917 -0.2633,-0.12478 -0.5265,-0.24955 -0.7898,-0.37433 -0.4658,-0.28194 -0.9316,-0.56387 -1.3973,-0.84581 -0.9606,-0.59785 -1.921,-1.19568 -2.8815,-1.79351 -0.6909,-0.46891 -1.3818,-0.93779 -2.0727,-1.40668 -0.405,-0.31358 -0.81,-0.62715 -1.2151,-0.94073 -0.8395,-0.58283 -1.679,-1.16564 -2.5185,-1.74847 -0.1354,-0.15663 -0.2708,-0.31325 -0.4062,-0.46988 0.3023,0.0446 0.6046,0.0891 0.907,0.13365 0.918,0.24324 1.8359,0.48647 2.7539,0.7297 0.7773,0.16009 1.5545,0.32016 2.3318,0.48024 0.784,0.12667 1.5681,0.25334 2.3522,0.38 0.8193,0.0904 1.6386,0.18079 2.4579,0.27119 0.9867,0.053 1.9735,0.10598 2.9602,0.15896 1.1794,-0.005 2.3587,-0.0106 3.5381,-0.016 1.4543,-0.0157 2.9086,-0.0314 4.3629,-0.0471 0.3571,-0.0515 0.7143,-0.10292 1.0714,-0.15439 0.4906,-0.0586 0.9812,-0.11715 1.4719,-0.17572 0.5426,-0.0446 1.0851,-0.0892 1.6277,-0.13383 0.3451,-0.0734 0.6902,-0.14674 1.0352,-0.2201 0.6616,-0.0793 1.3231,-0.15857 1.9846,-0.23785 0.4971,-0.10615 0.9942,-0.21229 1.4913,-0.31844 0.5419,-0.11914 1.0838,-0.23827 1.6257,-0.35741 0.4491,-0.0994 0.8983,-0.19871 1.3474,-0.29806 0.3465,-0.083 0.693,-0.16605 1.0395,-0.24908 0.4721,-0.14107 0.9442,-0.28213 1.4163,-0.4232 -0.6469,0.0708 -1.2937,0.14152 -1.9405,0.21227 -0.7804,0.0978 -1.5608,0.19566 -2.3413,0.29349 -0.7801,0.0892 -1.5602,0.17834 -2.3402,0.26752 -0.9563,0.0773 -1.9124,0.15454 -2.8686,0.23181 -1.0296,0.0176 -2.0591,0.0352 -3.0886,0.0528 -1.6182,-0.0614 -3.2364,-0.12276 -4.8546,-0.18413 -1.8898,-0.20782 -3.7795,-0.41562 -5.6693,-0.62343 -1.1173,-0.17612 -2.2346,-0.35222 -3.3518,-0.52833 -0.9967,-0.22079 -1.9933,-0.44157 -2.9899,-0.66235 -2.0529,-0.59342 -4.1058,-1.18682 -6.1587,-1.78023 -0.7261,-0.27815 -1.4521,-0.5563 -2.1782,-0.83445 0,-0.0579 0,-0.11575 0.01,-0.17362 0.8724,-0.076 1.7446,-0.15191 2.6169,-0.22787 0.8269,-0.10248 1.6537,-0.20497 2.4806,-0.30745 1.1882,-0.22384 2.3765,-0.44768 3.5647,-0.67152 2.4798,-0.61738 4.9595,-1.23473 7.4392,-1.85209 1.1798,-0.37471 2.3596,-0.7494 3.5395,-1.1241 1.4772,-0.6383 2.9544,-1.27658 4.4317,-1.91487 0.9057,-0.41787 1.8113,-0.83572 2.717,-1.25358 0.7892,-0.43931 1.5782,-0.8786 2.3674,-1.31789 1.4496,-0.95932 2.8991,-1.91859 4.3487,-2.87788 0.6761,-0.54544 1.3522,-1.09085 2.0283,-1.63628 0.4624,-0.39184 0.9247,-0.78367 1.387,-1.1755 0.4439,-0.40056 0.8877,-0.80109 1.3316,-1.20164 -0.789,0.42593 -1.5779,0.85184 -2.3668,1.27776 -1.1365,0.67915 -2.2729,1.35827 -3.4094,2.03741 -1.6096,0.78978 -3.2192,1.57953 -4.8288,2.3693 -2.4089,0.9066 -4.8176,1.81316 -7.2264,2.71974 -3.2889,0.81568 -6.5777,1.63133 -9.8665,2.44699 -2.3389,0.34137 -4.6777,0.68273 -7.0165,1.0241 -0.5577,0.0467 -1.1152,0.0934 -1.6728,0.14016 -1.5134,-0.01 -3.0268,-0.0199 -4.5401,-0.0298 0,-0.0562 0,-0.11245 0.01,-0.16868 0.2385,-0.0609 0.477,-0.12184 0.7155,-0.18276 0.6538,-0.15048 1.3076,-0.30096 1.9614,-0.45144 0.9315,-0.25125 1.863,-0.50248 2.7944,-0.75372 0.9375,-0.30242 1.875,-0.60484 2.8125,-0.90725 0.9145,-0.35533 1.8289,-0.71064 2.7434,-1.06596 0.7122,-0.28522 1.4244,-0.57043 2.1366,-0.85565 0.5049,-0.23894 1.0099,-0.47787 1.5149,-0.7168 0.435,-0.19896 0.87,-0.39792 1.305,-0.59688 0.9521,-0.55572 1.9042,-1.11143 2.8562,-1.66715 0.7563,-0.49912 1.5125,-0.99823 2.2687,-1.49735 0.5441,-0.41886 1.0881,-0.8377 1.6322,-1.25655 0.727,-0.63269 1.4539,-1.26536 2.1808,-1.89803 0.3083,-0.28178 0.6166,-0.56355 0.9249,-0.84533 0.7545,-0.71826 1.5089,-1.43649 2.2633,-2.15474 0.4556,-0.53184 0.9112,-1.06367 1.3668,-1.5955 0.3455,-0.38855 0.6909,-0.77708 1.0363,-1.16562 0.5671,-0.71565 1.1343,-1.43126 1.7014,-2.14689 0.4541,-0.56042 0.9081,-1.12081 1.3622,-1.68122 -0.023,-0.0533 -0.045,-0.10652 -0.068,-0.15978 -0.2177,0.19434 -0.4354,0.38867 -0.6531,0.58301 -0.5168,0.52028 -1.0337,1.04055 -1.5505,1.56083 -0.9913,0.89929 -1.9826,1.79854 -2.9739,2.69782 -0.7178,0.58042 -1.4355,1.16082 -2.1533,1.74123 -0.4765,0.36336 -0.953,0.72671 -1.4296,1.09007 -0.5519,0.36962 -1.1037,0.73923 -1.6556,1.10884 -0.7265,0.39957 -1.4529,0.79912 -2.1794,1.19868 -0.7837,0.48221 -1.5674,0.9644 -2.3512,1.4466 -1.6325,0.77985 -3.265,1.55968 -4.8975,2.33953 -0.8541,0.32975 -1.7081,0.65948 -2.5622,0.98922 -0.9291,0.32952 -1.8582,0.65902 -2.7874,0.98852 -1.1461,0.34931 -2.2923,0.69861 -3.4385,1.04791 -1.0462,0.24286 -2.0924,0.48571 -3.1386,0.72857 -1.3569,0.27204 -2.7137,0.54408 -4.0706,0.81611 -0.1113,-0.0461 -0.2227,-0.0922 -0.3341,-0.13834 0.3768,-0.13242 0.7535,-0.26483 1.1303,-0.39724 1.9264,-0.78856 3.8526,-1.57709 5.779,-2.36563 1.2779,-0.56371 2.5559,-1.12739 3.8338,-1.69109 1.7424,-1.03393 3.4847,-2.06783 5.2271,-3.10174 2.8309,-2.63958 5.6617,-5.27906 8.4926,-7.91859 0.686,-0.94764 1.3721,-1.89524 2.0582,-2.84286 0.4599,-0.64099 0.9199,-1.28196 1.3799,-1.92293 0.3535,-0.50094 0.707,-1.00186 1.0605,-1.50279 0.3799,-0.50404 0.7598,-1.00807 1.1396,-1.5121 -0.7085,0.81098 -1.417,1.62193 -2.1254,2.4329 -0.548,0.6597 -1.096,1.31937 -1.6439,1.97905 -0.673,0.62689 -1.3459,1.25375 -2.0188,1.88062 -0.7414,0.61707 -1.4826,1.23412 -2.224,1.85117 -0.5947,0.46516 -1.1895,0.93029 -1.7843,1.39543 -0.5535,0.40105 -1.107,0.80208 -1.6605,1.20313 -1.1315,0.73547 -2.263,1.47092 -3.3945,2.20638 -0.383,0.24498 -0.766,0.48995 -1.149,0.73493 -0.668,0.34622 -1.3361,0.69243 -2.0041,1.03865 -0.5054,0.26061 -1.0107,0.52121 -1.5161,0.78182 -0.5954,0.3005 -1.1907,0.60099 -1.7861,0.90148 -1.6059,0.5947 -3.2118,1.18937 -4.8177,1.78406 -0.8866,0.24983 -1.7731,0.49966 -2.6596,0.74949 -0.4762,0.11373 -0.9524,0.22744 -1.4286,0.34117 -0.3074,0.0648 -0.6147,0.12964 -0.9221,0.19447 -0.6447,0.0288 -1.2893,0.0576 -1.934,0.0864 -0.7844,-0.0781 -1.5688,-0.15619 -2.3532,-0.23428 -0.3362,-0.0804 -0.6723,-0.16075 -1.0085,-0.24113 -0.275,-0.0769 -0.55,-0.15376 -0.825,-0.23064 -0.3017,-0.0864 -0.6033,-0.17281 -0.905,-0.25922 -0.1982,-0.0839 -0.3963,-0.16784 -0.5944,-0.25176 -0.2366,-0.0802 -0.4731,-0.16046 -0.7097,-0.24069 -0.5418,-0.15431 -1.0835,-0.30861 -1.6253,-0.46292 -0.2214,-0.0656 -0.4428,-0.13112 -0.6641,-0.19668 -0.2984,-0.0757 -0.5968,-0.15147 -0.8952,-0.2272 -0.2812,-0.0574 -0.5624,-0.11488 -0.8436,-0.17231 -0.4245,-0.0269 -0.8489,-0.0539 -1.2734,-0.0808 -0.8914,-0.0959 -1.7827,-0.19173 -2.6741,-0.2876 -0.5837,-0.005 -1.1674,-0.01 -1.7511,-0.0144 -0.5885,-4.3e-4 -1.177,-8.6e-4 -1.7655,-0.001 -0.3789,0.0494 -0.7579,0.0988 -1.1368,0.14825 -0.4435,0.0555 -0.8869,0.11091 -1.3304,0.16636 -1.2698,0.26584 -2.5395,0.53168 -3.8092,0.79751 -1.1742,0.3412 -2.3483,0.68239 -3.5225,1.02358 -1.0938,0.50033 -2.1875,1.00064 -3.2813,1.50096 -0.4435,0.20347 -0.887,0.40692 -1.3305,0.61038 -0.4346,0.26645 -0.8691,0.53289 -1.3037,0.79933 -1.2202,0.84386 -2.4403,1.68769 -3.6605,2.53153 -0.833,0.75784 -1.666,1.51565 -2.499,2.27347 -0.154,0.14422 -0.308,0.28842 -0.462,0.43263 0.047,0.19168 0.094,0.38335 0.1406,0.57502 0.1387,0.21685 0.2775,0.43369 0.4162,0.65054 0.264,0.2592 0.5279,0.51839 0.7919,0.77759 0.3055,0.16668 0.611,0.33336 0.9165,0.50004 0.4789,0.12786 0.9579,0.25572 1.4369,0.38358 0.1128,-0.0118 0.2256,-0.0236 0.3384,-0.0353 0.1977,-0.0468 0.3954,-0.0935 0.5931,-0.14025 0.8233,-0.45942 1.6466,-0.91882 2.47,-1.37823 0.2957,-0.28381 0.5915,-0.5676 0.8872,-0.8514 0.5027,-0.44878 1.0053,-0.89753 1.508,-1.3463 0.4006,-0.39704 0.8011,-0.79407 1.2017,-1.19111 0.3685,-0.32351 0.7369,-0.64702 1.1054,-0.97052 0.389,-0.26089 0.778,-0.52177 1.1671,-0.78265 0.3904,-0.24846 0.7809,-0.49691 1.1714,-0.74537 0.2791,-0.14916 0.5583,-0.29831 0.8374,-0.44747 0.2991,-0.1337 0.5983,-0.26739 0.8974,-0.40108 0.3781,-0.1158 0.7561,-0.23159 1.1341,-0.34739 0.3302,-0.083 0.6604,-0.16592 0.9906,-0.24889 0.4422,-0.0267 0.8843,-0.0534 1.3264,-0.0801 0.5849,-0.0323 1.1697,-0.0646 1.7545,-0.0969 0.599,0.052 1.1979,0.10399 1.7968,0.15599 0.5814,0.16037 1.1627,0.32074 1.7441,0.48111 0.4234,0.1311 0.8469,0.26219 1.2704,0.39329 0.5269,0.24183 1.0537,0.48365 1.5806,0.72547 0.6063,0.38769 1.2125,0.77536 1.8188,1.16303 0.34,0.25132 0.6801,0.50263 1.0201,0.75394 0.3201,0.32015 0.6401,0.64028 0.9602,0.96042 0.204,0.26476 0.408,0.5295 0.612,0.79425 0.2453,0.29356 0.4905,0.58711 0.7357,0.88066 0.029,0.11352 0.058,0.22704 0.087,0.34056 -0.1352,0.0403 -0.2705,0.0807 -0.4058,0.12102 -0.2826,0 -0.5652,0 -0.8477,0 -0.3008,0.0495 -0.6015,0.099 -0.9022,0.14843 -0.3483,0.15653 -0.6965,0.31304 -1.0448,0.46956 -0.2647,0.11998 -0.5294,0.23995 -0.7941,0.35993 -0.2627,0.20188 -0.5254,0.40376 -0.7881,0.60565 -0.2536,0.20601 -0.5073,0.41201 -0.7609,0.61802 -0.3053,0.24136 -0.6105,0.48272 -0.9158,0.72407 -0.2969,0.28795 -0.5939,0.57589 -0.8908,0.86383 -0.3221,0.26289 -0.6442,0.52577 -0.9663,0.78866 -0.5227,0.349 -1.0455,0.69799 -1.5682,1.04699 -0.6704,0.37424 -1.3408,0.74847 -2.0111,1.1227 -0.5046,0.19665 -1.0091,0.39329 -1.5136,0.58994 -0.5618,0.16501 -1.1236,0.33001 -1.6854,0.49502 -0.5674,0.11423 -1.1348,0.22847 -1.7022,0.34271 -0.6077,0.0484 -1.2154,0.0967 -1.8232,0.14508 -0.709,0.0538 -1.4179,0.10767 -2.1269,0.1615 -0.5978,0.0332 -1.1956,0.0664 -1.7934,0.0996 -0.8935,-0.0319 -1.7869,-0.0638 -2.6803,-0.0956 -0.5954,-0.0696 -1.1909,-0.1393 -1.7863,-0.20895 -0.505,-0.14444 -1.0099,-0.28887 -1.5148,-0.43331 -0.6751,-0.32518 -1.3501,-0.65035 -2.0251,-0.97553 -0.3211,-0.2193 -0.6422,-0.4386 -0.9633,-0.6579 -0.4123,-0.37152 -0.8247,-0.74302 -1.237,-1.11453 -0.3142,-0.3643 -0.62834,-0.72857 -0.94249,-1.09285 -0.22086,-0.30538 -0.44172,-0.61075 -0.66257,-0.91612 -0.11229,-0.23527 -0.22457,-0.47053 -0.33686,-0.70579 -0.10198,-0.14125 -0.20396,-0.28249 -0.30595,-0.42374 -0.0754,0.0298 -0.15079,0.0596 -0.22619,0.0895 -0.3292,0.17592 -0.65839,0.35183 -0.98758,0.52774 -0.21954,0.13628 -0.43907,0.27255 -0.65861,0.40882 -0.66177,0.41326 -1.32351,0.8265 -1.98527,1.23974 -0.48107,0.41262 -0.96213,0.82523 -1.4432,1.23784 -0.41784,0.47652 -0.83566,0.95302 -1.25349,1.42953 -0.25269,0.28381 -0.50537,0.56761 -0.75805,0.85141 -0.30308,0.48776 -0.60615,0.9755 -0.90922,1.46325 -0.16764,0.477 -0.33528,0.95398 -0.50292,1.43096 -0.0794,0.3605 -0.15884,0.72098 -0.23826,1.08147 -0.061,0.42224 -0.12191,0.84447 -0.18287,1.2667 -0.023,0.65289 -0.0459,1.30575 -0.0689,1.95862 0.0874,0.48209 0.17472,0.96416 0.26208,1.44623 0.11321,0.4946 0.22642,0.98919 0.33963,1.48378 0.22462,0.62788 0.44923,1.25574 0.67385,1.88361 0.16137,0.41768 0.32273,0.83534 0.48409,1.25302 0.24147,0.40436 0.48293,0.8087 0.72439,1.21306 0.2629,0.34457 0.52578,0.68912 0.78867,1.03368 z"
       inkscape:path-effect="#path-effect9" /></g></svg>
